<svg width="144" height="144" viewBox="0 0 144 144" fill="none" xmlns="http://www.w3.org/2000/svg">
<path d="M19.3257 68.89L79.5722 129.14C86.1925 135.76 94.9943 139.407 104.356 139.407C123.682 139.407 139.408 123.681 139.408 104.354C139.408 94.9915 135.761 86.1892 129.141 79.5685L55.1163 5.54006L58.3633 2.29288L132.388 76.3213C139.876 83.81 144 93.7652 144 104.354C144 126.216 126.218 144 104.356 144C93.7681 144 83.8135 139.876 76.3252 132.387L16.0787 72.1372L19.3257 68.89Z" fill="#D05814"/>
<path d="M95.7773 88.8851C100.843 88.8851 104.963 93.0049 104.963 98.0709C104.963 103.137 100.843 107.257 95.7773 107.257C90.7116 107.257 86.592 103.137 86.592 98.0709C86.592 93.0049 90.7116 88.8851 95.7773 88.8851ZM95.7773 102.664C98.3101 102.664 100.37 100.604 100.37 98.0709C100.37 95.5379 98.3101 93.478 95.7773 93.478C93.2444 93.478 91.1846 95.5379 91.1846 98.0709C91.1846 100.604 93.2444 102.664 95.7773 102.664Z" fill="#D05814"/>
<path d="M109.555 111.85C113.354 111.85 116.444 114.941 116.444 118.739C116.444 122.537 113.354 125.628 109.555 125.628C105.757 125.628 102.666 122.537 102.666 118.739C102.666 114.941 105.757 111.85 109.555 111.85ZM109.555 121.035C110.823 121.035 111.852 120.007 111.852 118.739C111.852 117.471 110.823 116.443 109.555 116.443C108.288 116.443 107.259 117.471 107.259 118.739C107.259 120.007 108.288 121.035 109.555 121.035Z" fill="#D05814"/>
<path d="M59.7089 37.6794L32.1527 10.1217L35.4002 6.87409L62.9564 34.4318L59.7089 37.6794Z" fill="#D05814"/>
<path d="M41.3389 44.5703L9.19099 12.4207L12.4385 9.17307L44.5863 41.3227L41.3389 44.5703Z" fill="#D05814"/>
<path d="M3.24777 -1.1405e-06L7.83968 4.59216L4.59222 7.8398L0.000307998 3.24764L3.24777 -1.1405e-06Z" fill="#D05814"/>
<path d="M21.622 43.6289L75.9692 97.979C77.0921 93.3218 79.2943 89.0872 82.3186 85.5621L45.9309 49.1726L49.1779 45.9254L85.5656 82.315C89.0904 79.2905 93.3249 77.0882 97.9818 75.9653L64.3016 42.2832L67.5486 39.036L103.681 75.1707C104.111 75.1523 104.531 75.1064 104.963 75.1064C121.423 75.1064 134.815 88.4993 134.815 104.96C134.815 121.421 121.423 134.814 104.963 134.814C88.5026 134.814 75.1104 121.421 75.1104 104.96C75.1104 104.529 75.1563 104.108 75.1747 103.679L18.375 46.8761L21.622 43.6289ZM125.717 90.5982C124.217 91.8843 123.333 93.7421 123.333 95.7744C123.333 99.5337 126.362 102.588 130.105 102.652C129.699 98.2018 128.137 94.0843 125.717 90.5982ZM104.963 130.221C118.121 130.221 128.946 120.105 130.107 107.245C123.829 107.181 118.741 102.067 118.741 95.7744C118.741 92.3458 120.245 89.2181 122.782 87.0755C119 83.307 114.024 80.7534 108.485 79.9749L115.771 87.2615L112.524 90.5087L101.918 79.9014C89.4234 81.4124 79.703 92.0634 79.703 104.96C79.703 118.888 91.0354 130.221 104.963 130.221Z" fill="#D05814"/>
<path d="M17.0233 39.0298L13.7759 42.2775L9.18398 37.6853L12.4314 34.4376L17.0233 39.0298Z" fill="#D05814"/>
<path d="M11.4783 67.5368L6.88634 62.9446L10.1338 59.697L14.7257 64.2892L11.4783 67.5368Z" fill="#D05814"/>
<path d="M92.8094 117.115L89.562 120.362L84.9701 115.77L88.2175 112.523L92.8094 117.115Z" fill="#D05814"/>
<path d="M56.7397 139.407H61.3324V144H56.7397V139.407Z" fill="#D05814"/>
<path d="M56.7397 130.221H61.3324V134.814H56.7397V130.221Z" fill="#D05814"/>
<path d="M52.1471 134.814H56.7398V139.407H52.1471V134.814Z" fill="#D05814"/>
<path d="M61.3325 134.814H65.9252V139.407H61.3325V134.814Z" fill="#D05814"/>
<path d="M10.8133 125.628H15.406V130.221H10.8133V125.628Z" fill="#D05814"/>
<path d="M10.8133 116.443H15.406V121.036H10.8133V116.443Z" fill="#D05814"/>
<path d="M6.22047 121.035H10.8131V125.628H6.22047V121.035Z" fill="#D05814"/>
<path d="M15.4059 121.035H19.9985V125.628H15.4059V121.035Z" fill="#D05814"/>
<path d="M130.222 52.1418H134.815V56.7348H130.222V52.1418Z" fill="#D05814"/>
<path d="M130.222 42.9561H134.815V47.549H130.222V42.9561Z" fill="#D05814"/>
<path d="M125.63 47.549H130.222V52.1419H125.63V47.549Z" fill="#D05814"/>
<path d="M134.815 47.549H139.408V52.1419H134.815V47.549Z" fill="#D05814"/>
<path d="M116.444 10.8058H121.037V15.3987H116.444V10.8058Z" fill="#D05814"/>
<path d="M116.444 1.62H121.037V6.2129H116.444V1.62Z" fill="#D05814"/>
<path d="M111.852 6.21286H116.444V10.8058H111.852V6.21286Z" fill="#D05814"/>
<path d="M121.037 6.21286H125.63V10.8058H121.037V6.21286Z" fill="#D05814"/>
<path d="M15.4059 91.1815H19.9985V95.7744H15.4059V91.1815Z" fill="#D05814"/>
<path d="M15.4059 81.9957H19.9985V86.5887H15.4059V81.9957Z" fill="#D05814"/>
<path d="M10.8133 86.5887H15.406V91.1816H10.8133V86.5887Z" fill="#D05814"/>
<path d="M19.9984 86.5887H24.5911V91.1816H19.9984V86.5887Z" fill="#D05814"/>
</svg>

