<svg width="512" height="512" viewBox="0 0 512 512" fill="none" xmlns="http://www.w3.org/2000/svg">
<path d="M68.7126 244.942L282.922 459.163C306.461 482.703 337.757 495.67 371.044 495.67C439.759 495.67 495.671 439.755 495.671 371.037C495.671 337.747 482.705 306.45 459.166 282.91L195.968 19.698L207.513 8.15244L470.711 271.365C497.336 297.991 512 333.387 512 371.037C512 448.769 448.773 512 371.044 512C333.397 512 298.003 497.335 271.378 470.709L57.1676 256.488L68.7126 244.942Z" fill="#D05814"/>
<path d="M340.541 316.036C358.552 316.036 373.2 330.684 373.2 348.697C373.2 366.709 358.552 381.357 340.541 381.357C322.529 381.357 307.882 366.709 307.882 348.697C307.882 330.684 322.529 316.036 340.541 316.036ZM340.541 365.027C349.546 365.027 356.87 357.703 356.87 348.697C356.87 339.69 349.546 332.366 340.541 332.366C331.535 332.366 324.211 339.69 324.211 348.697C324.211 357.703 331.535 365.027 340.541 365.027Z" fill="#D05814"/>
<path d="M389.53 397.688C403.034 397.688 414.024 408.678 414.024 422.183C414.024 435.688 403.034 446.678 389.53 446.678C376.025 446.678 365.035 435.688 365.035 422.183C365.035 408.678 376.025 397.688 389.53 397.688ZM389.53 430.348C394.036 430.348 397.694 426.69 397.694 422.183C397.694 417.676 394.036 414.018 389.53 414.018C385.023 414.018 381.365 417.676 381.365 422.183C381.365 426.69 385.023 430.348 389.53 430.348Z" fill="#D05814"/>
<path d="M212.297 133.971L114.32 35.9884L125.866 24.4412L223.844 122.424L212.297 133.971Z" fill="#D05814"/>
<path d="M146.982 158.472L32.678 44.1626L44.2246 32.6154L158.528 146.925L146.982 158.472Z" fill="#D05814"/>
<path d="M11.5466 2.98672e-06L27.8734 16.3277L16.3268 27.8749L2.89505e-05 11.5472L11.5466 2.98672e-06Z" fill="#D05814"/>
<path d="M76.8771 155.125L270.112 348.37C274.104 331.811 281.934 316.755 292.687 304.221L163.309 174.836L174.854 163.29L304.232 292.675C316.765 281.922 331.821 274.092 348.379 270.099L228.627 150.34L240.172 138.795L368.644 267.274C370.171 267.208 371.665 267.045 373.2 267.045C431.724 267.045 479.341 314.664 479.341 373.192C479.341 431.72 431.724 479.339 373.2 479.339C314.675 479.339 267.058 431.72 267.058 373.192C267.058 371.657 267.221 370.163 267.287 368.636L65.3322 166.671L76.8771 155.125ZM446.992 322.127C441.661 326.7 438.517 333.305 438.517 340.531C438.517 353.898 449.287 364.757 462.595 364.986C461.15 349.162 455.598 334.522 446.992 322.127ZM373.2 463.009C419.984 463.009 458.472 427.041 462.603 381.316C440.281 381.088 422.188 362.904 422.188 340.531C422.188 328.341 427.536 317.22 436.558 309.602C423.111 296.203 405.418 287.123 385.724 284.355L411.631 310.263L400.086 321.809L362.373 284.094C317.949 289.467 283.388 327.337 283.388 373.192C283.388 422.714 323.681 463.009 373.2 463.009Z" fill="#D05814"/>
<path d="M60.5263 138.773L48.9798 150.32L32.6531 133.992L44.1996 122.445L60.5263 138.773Z" fill="#D05814"/>
<path d="M40.8105 240.131L24.4837 223.803L36.0303 212.256L52.3571 228.584L40.8105 240.131Z" fill="#D05814"/>
<path d="M329.988 416.408L318.442 427.955L302.115 411.628L313.661 400.081L329.988 416.408Z" fill="#D05814"/>
<path d="M201.74 495.67H218.07V512H201.74V495.67Z" fill="#D05814"/>
<path d="M201.74 463.009H218.07V479.339H201.74V463.009Z" fill="#D05814"/>
<path d="M185.411 479.339H201.741V495.669H185.411V479.339Z" fill="#D05814"/>
<path d="M218.07 479.339H234.4V495.669H218.07V479.339Z" fill="#D05814"/>
<path d="M38.4463 446.678H54.7757V463.009H38.4463V446.678Z" fill="#D05814"/>
<path d="M38.4463 414.018H54.7757V430.348H38.4463V414.018Z" fill="#D05814"/>
<path d="M22.1161 430.348H38.4456V446.678H22.1161V430.348Z" fill="#D05814"/>
<path d="M54.7753 430.348H71.1048V446.678H54.7753V430.348Z" fill="#D05814"/>
<path d="M463.012 185.393H479.341V201.724H463.012V185.393Z" fill="#D05814"/>
<path d="M463.012 152.733H479.341V169.063H463.012V152.733Z" fill="#D05814"/>
<path d="M446.683 169.063H463.012V185.393H446.683V169.063Z" fill="#D05814"/>
<path d="M479.342 169.063H495.671V185.393H479.342V169.063Z" fill="#D05814"/>
<path d="M414.023 38.4207H430.353V54.751H414.023V38.4207Z" fill="#D05814"/>
<path d="M414.023 5.75998H430.353V22.0903H414.023V5.75998Z" fill="#D05814"/>
<path d="M397.694 22.0902H414.024V38.4205H397.694V22.0902Z" fill="#D05814"/>
<path d="M430.353 22.0902H446.683V38.4205H430.353V22.0902Z" fill="#D05814"/>
<path d="M54.7753 324.201H71.1048V340.531H54.7753V324.201Z" fill="#D05814"/>
<path d="M54.7753 291.54H71.1048V307.871H54.7753V291.54Z" fill="#D05814"/>
<path d="M38.4463 307.871H54.7757V324.201H38.4463V307.871Z" fill="#D05814"/>
<path d="M71.1044 307.871H87.4339V324.201H71.1044V307.871Z" fill="#D05814"/>
</svg>

