<svg width="192" height="192" viewBox="0 0 192 192" fill="none" xmlns="http://www.w3.org/2000/svg">
<path d="M25.7671 91.8532L106.096 172.186C114.923 181.014 126.659 185.876 139.142 185.876C164.909 185.876 185.876 164.908 185.876 139.139C185.876 126.655 181.014 114.919 172.187 106.091L73.4879 7.38657L77.8173 3.05699L176.517 101.762C186.501 111.747 192 125.02 192 139.139C192 168.288 168.29 192 139.142 192C125.024 192 111.751 186.501 101.766 176.516L21.4377 96.1827L25.7671 91.8532Z" fill="#D05814"/>
<path d="M127.703 118.513C134.457 118.513 139.95 124.006 139.95 130.761C139.95 137.516 134.457 143.009 127.703 143.009C120.948 143.009 115.456 137.516 115.456 130.761C115.456 124.006 120.948 118.513 127.703 118.513ZM127.703 136.885C131.08 136.885 133.826 134.138 133.826 130.761C133.826 127.384 131.08 124.637 127.703 124.637C124.326 124.637 121.579 127.384 121.579 130.761C121.579 134.138 124.326 136.885 127.703 136.885Z" fill="#D05814"/>
<path d="M146.073 149.133C151.138 149.133 155.259 153.254 155.259 158.319C155.259 163.383 151.138 167.504 146.073 167.504C141.009 167.504 136.888 163.383 136.888 158.319C136.888 153.254 141.009 149.133 146.073 149.133ZM146.073 161.38C147.764 161.38 149.135 160.009 149.135 158.319C149.135 156.628 147.764 155.257 146.073 155.257C144.383 155.257 143.012 156.628 143.012 158.319C143.012 160.009 144.383 161.38 146.073 161.38Z" fill="#D05814"/>
<path d="M79.6115 50.2391L42.8699 13.4955L47.1998 9.16532L83.9415 45.9089L79.6115 50.2391Z" fill="#D05814"/>
<path d="M55.1181 59.427L12.2543 16.5608L16.5842 12.2306L59.4481 55.0968L55.1181 59.427Z" fill="#D05814"/>
<path d="M4.32997 -0.000129244L10.4525 6.12276L6.12256 10.4529L1.5076e-05 4.33006L4.32997 -0.000129244Z" fill="#D05814"/>
<path d="M28.8289 58.1718L101.292 130.639C102.789 124.429 105.725 118.783 109.758 114.083L61.2409 65.5634L65.5702 61.2338L114.087 109.753C118.787 105.721 124.433 102.784 130.642 101.287L85.7351 56.3775L90.0644 52.048L138.241 100.228C138.814 100.203 139.374 100.142 139.95 100.142C161.897 100.142 179.753 117.999 179.753 139.947C179.753 161.895 161.897 179.752 139.95 179.752C118.003 179.752 100.147 161.895 100.147 139.947C100.147 139.371 100.208 138.811 100.233 138.238L24.4996 62.5014L28.8289 58.1718ZM167.622 120.798C165.623 122.512 164.444 124.989 164.444 127.699C164.444 132.712 168.483 136.784 173.473 136.87C172.931 130.936 170.849 125.446 167.622 120.798ZM139.95 173.628C157.494 173.628 171.927 160.14 173.476 142.994C165.105 142.908 158.321 136.089 158.321 127.699C158.321 123.128 160.326 118.957 163.709 116.101C158.666 111.076 152.032 107.671 144.647 106.633L154.362 116.349L150.032 120.678L135.89 106.535C119.231 108.55 106.27 122.751 106.27 139.947C106.27 158.518 121.38 173.628 139.95 173.628Z" fill="#D05814"/>
<path d="M22.6974 52.0396L18.3674 56.3698L12.2449 50.2469L16.5748 45.9167L22.6974 52.0396Z" fill="#D05814"/>
<path d="M15.3038 90.0489L9.18121 83.9261L13.5112 79.5959L19.6337 85.7187L15.3038 90.0489Z" fill="#D05814"/>
<path d="M123.745 156.153L119.415 160.483L113.293 154.36L117.623 150.03L123.745 156.153Z" fill="#D05814"/>
<path d="M75.6526 185.876H81.7761V192H75.6526V185.876Z" fill="#D05814"/>
<path d="M75.6526 173.628H81.7761V179.752H75.6526V173.628Z" fill="#D05814"/>
<path d="M69.5291 179.752H75.6526V185.876H69.5291V179.752Z" fill="#D05814"/>
<path d="M81.7761 179.752H87.8997V185.876H81.7761V179.752Z" fill="#D05814"/>
<path d="M14.4171 167.504H20.5406V173.628H14.4171V167.504Z" fill="#D05814"/>
<path d="M14.4171 155.257H20.5406V161.381H14.4171V155.257Z" fill="#D05814"/>
<path d="M8.29356 161.38H14.4171V167.504H8.29356V161.38Z" fill="#D05814"/>
<path d="M20.5406 161.38H26.6642V167.504H20.5406V161.38Z" fill="#D05814"/>
<path d="M173.629 69.5224H179.753V75.6463H173.629V69.5224Z" fill="#D05814"/>
<path d="M173.629 57.2747H179.753V63.3986H173.629V57.2747Z" fill="#D05814"/>
<path d="M167.506 63.3986H173.629V69.5224H167.506V63.3986Z" fill="#D05814"/>
<path d="M179.753 63.3986H185.876V69.5224H179.753V63.3986Z" fill="#D05814"/>
<path d="M155.259 14.4076H161.382V20.5315H155.259V14.4076Z" fill="#D05814"/>
<path d="M155.259 2.15984H161.382V8.28371H155.259V2.15984Z" fill="#D05814"/>
<path d="M149.135 8.28371H155.259V14.4076H149.135V8.28371Z" fill="#D05814"/>
<path d="M161.382 8.28371H167.506V14.4076H161.382V8.28371Z" fill="#D05814"/>
<path d="M20.5406 121.575H26.6642V127.699H20.5406V121.575Z" fill="#D05814"/>
<path d="M20.5406 109.328H26.6642V115.452H20.5406V109.328Z" fill="#D05814"/>
<path d="M14.4171 115.452H20.5406V121.575H14.4171V115.452Z" fill="#D05814"/>
<path d="M26.6642 115.452H32.7877V121.575H26.6642V115.452Z" fill="#D05814"/>
</svg>

