<svg width="902" height="174" viewBox="0 0 902 174" fill="none" xmlns="http://www.w3.org/2000/svg">
<path d="M644.845 155.608C656.513 155.608 665.971 146.576 665.971 135.435C665.971 124.293 656.513 115.261 644.845 115.261C633.177 115.261 623.719 124.293 623.719 135.435C623.719 146.576 633.177 155.608 644.845 155.608Z" fill="#EDC148"/>
<path d="M644.845 166.139C636.607 166.139 628.369 163.145 622.097 157.156L575.245 112.417C574.432 111.641 574.432 110.383 575.245 109.607C576.057 108.832 577.375 108.832 578.187 109.607L625.04 154.346C635.961 164.774 653.73 164.774 664.65 154.346C675.571 143.918 675.571 126.951 664.65 116.523L638.849 91.8855C638.036 91.1094 638.036 89.8516 638.849 89.0758C639.661 88.3 640.979 88.3 641.791 89.0758L667.593 113.713C680.136 125.691 680.136 145.179 667.593 157.156C661.321 163.145 653.083 166.139 644.845 166.139Z" fill="#B3B3B3"/>
<path d="M632.511 85.0107C631.979 85.0107 631.446 84.8166 631.04 84.4287L617.798 71.7837C616.985 71.0076 616.985 69.7498 617.798 68.974C618.61 68.1982 619.928 68.1982 620.74 68.974L633.983 81.619C634.795 82.3951 634.795 83.6529 633.983 84.4287C633.576 84.8169 633.044 85.0107 632.511 85.0107Z" fill="#B3B3B3"/>
<path d="M558.629 79.4096C558.096 79.4096 557.564 79.2155 557.158 78.8276L544.61 66.8453C543.797 66.0692 543.797 64.8114 544.61 64.0356C545.422 63.2598 546.74 63.2598 547.552 64.0356L560.1 76.0179C560.913 76.794 560.913 78.0518 560.1 78.8276C559.694 79.2155 559.162 79.4096 558.629 79.4096Z" fill="#B3B3B3"/>
<path d="M613.102 131.425C612.569 131.425 612.037 131.231 611.631 130.843L561.895 83.3512C561.083 82.5751 561.083 81.3173 561.895 80.5415C562.708 79.7657 564.025 79.7657 564.838 80.5415L614.573 128.033C615.386 128.809 615.386 130.067 614.573 130.843C614.167 131.231 613.635 131.425 613.102 131.425Z" fill="#B3B3B3"/>
<path d="M610.556 104.679C610.023 104.679 609.491 104.485 609.085 104.097L582.603 78.8099C581.79 78.0338 581.79 76.7759 582.603 76.0001C583.415 75.2243 584.733 75.2243 585.545 76.0001L612.027 101.288C612.84 102.064 612.84 103.322 612.027 104.097C611.621 104.485 611.089 104.679 610.556 104.679Z" fill="#B3B3B3"/>
<path d="M622.778 116.35C622.245 116.35 621.713 116.156 621.307 115.768L615.535 110.257C614.723 109.481 614.723 108.223 615.535 107.447C616.348 106.671 617.665 106.671 618.478 107.447L624.249 112.958C625.062 113.734 625.062 114.992 624.249 115.768C623.843 116.156 623.311 116.35 622.778 116.35Z" fill="#B3B3B3"/>
<path d="M612.763 82.4718C612.23 82.4718 611.698 82.2777 611.292 81.8898L591.919 63.3916C591.107 62.6155 591.107 61.3576 591.919 60.5818C592.732 59.8061 594.049 59.8061 594.862 60.5818L614.234 79.0801C615.047 79.8562 615.047 81.114 614.234 81.8898C613.828 82.2777 613.295 82.4718 612.763 82.4718Z" fill="#B3B3B3"/>
<path d="M638.566 107.111C638.033 107.111 637.501 106.917 637.094 106.529L618.082 88.3737C617.269 87.5976 617.269 86.3397 618.082 85.5639C618.894 84.7881 620.212 84.7881 621.024 85.5639L640.037 103.719C640.85 104.495 640.85 105.753 640.037 106.529C639.631 106.917 639.098 107.111 638.566 107.111Z" fill="#B3B3B3"/>
<path d="M637.446 133.852C639.7 133.852 641.527 132.107 641.527 129.955C641.527 127.803 639.7 126.058 637.446 126.058C635.192 126.058 633.365 127.803 633.365 129.955C633.365 132.107 635.192 133.852 637.446 133.852Z" fill="#B2863F"/>
<path d="M654.013 145.543C657.445 145.543 660.227 142.887 660.227 139.61C660.227 136.333 657.445 133.676 654.013 133.676C650.581 133.676 647.799 136.333 647.799 139.61C647.799 142.887 650.581 145.543 654.013 145.543Z" fill="#B2863F"/>
<path d="M636.485 145.238C636.351 145.238 636.213 145.226 636.078 145.199C635.947 145.174 635.816 145.134 635.691 145.085C635.563 145.037 635.445 144.975 635.329 144.902C635.217 144.832 635.108 144.746 635.012 144.658C634.916 144.566 634.83 144.462 634.756 144.355C634.68 144.245 634.616 144.132 634.564 144.01C634.513 143.89 634.471 143.765 634.446 143.64C634.417 143.511 634.404 143.38 634.404 143.251C634.404 143.12 634.417 142.992 634.446 142.863C634.471 142.735 634.513 142.61 634.564 142.49C634.616 142.371 634.68 142.255 634.756 142.148C634.83 142.038 634.916 141.937 635.012 141.845C635.108 141.754 635.217 141.671 635.329 141.598C635.445 141.527 635.563 141.466 635.691 141.417C635.816 141.365 635.947 141.329 636.078 141.304C636.754 141.173 637.474 141.384 637.957 141.845C638.054 141.937 638.14 142.038 638.217 142.148C638.29 142.255 638.354 142.371 638.406 142.49C638.46 142.61 638.498 142.735 638.524 142.863C638.553 142.992 638.566 143.12 638.566 143.251C638.566 143.38 638.553 143.511 638.524 143.64C638.498 143.765 638.46 143.89 638.406 144.01C638.354 144.132 638.29 144.245 638.217 144.355C638.14 144.462 638.054 144.566 637.957 144.658C637.57 145.024 637.032 145.238 636.485 145.238Z" fill="#B2863F"/>
<path d="M651.37 127.357C650.823 127.357 650.285 127.146 649.898 126.776C649.802 126.684 649.715 126.583 649.638 126.473C649.565 126.366 649.501 126.25 649.449 126.131C649.395 126.009 649.357 125.886 649.331 125.758C649.302 125.63 649.289 125.498 649.289 125.37C649.289 124.847 649.51 124.337 649.898 123.967C649.994 123.875 650.099 123.789 650.215 123.719C650.327 123.646 650.448 123.585 650.573 123.536C650.701 123.487 650.829 123.447 650.964 123.423C651.639 123.294 652.359 123.505 652.839 123.967C653.23 124.334 653.451 124.847 653.451 125.37C653.451 125.498 653.438 125.63 653.409 125.758C653.384 125.886 653.342 126.009 653.291 126.131C653.24 126.25 653.176 126.366 653.099 126.473C653.025 126.583 652.935 126.684 652.839 126.776C652.452 127.146 651.918 127.357 651.37 127.357Z" fill="#B2863F"/>
<path d="M643.687 149.823C643.14 149.823 642.602 149.609 642.215 149.24C641.828 148.873 641.607 148.359 641.607 147.837C641.607 147.314 641.828 146.8 642.215 146.43C642.602 146.061 643.14 145.85 643.687 145.85C644.235 145.85 644.773 146.061 645.16 146.43C645.547 146.8 645.768 147.314 645.768 147.837C645.768 148.359 645.547 148.87 645.16 149.24C644.773 149.609 644.235 149.823 643.687 149.823Z" fill="#B2863F"/>
<path d="M340.312 114.216C342.957 111.229 346.456 108.883 350.808 107.176C355.245 105.384 359.213 104.488 362.712 104.488C371.16 104.488 377.133 106.963 380.632 111.912C384.216 116.861 386.008 122.92 386.008 130.088V169H369.24V130.856C369.24 126.931 368.301 123.944 366.424 121.896C364.547 119.763 361.816 118.696 358.232 118.696C355.843 118.696 353.325 119.336 350.68 120.616C348.035 121.896 345.645 123.347 343.512 124.968C343.597 125.821 343.683 126.675 343.768 127.528C343.853 128.381 343.896 129.235 343.896 130.088V169H327.128V130.856C327.128 126.931 326.189 123.944 324.312 121.896C322.435 119.763 319.747 118.696 316.248 118.696C314.115 118.696 311.939 119.165 309.72 120.104C307.587 120.957 305.539 122.067 303.576 123.432V169H286.936V106.92H295.64L299.736 112.552C302.552 109.992 305.923 108.029 309.848 106.664C313.859 105.213 317.443 104.488 320.6 104.488C325.464 104.488 329.517 105.384 332.76 107.176C336.003 108.883 338.52 111.229 340.312 114.216ZM433.314 170.536C422.562 170.536 414.071 167.592 407.842 161.704C401.698 155.816 398.626 147.923 398.626 138.024C398.626 128.125 401.399 120.189 406.946 114.216C412.578 108.243 420.215 105.256 429.858 105.256C439.586 105.256 446.711 108.499 451.234 114.984C455.842 121.384 458.146 128.979 458.146 137.768V142.888H416.29C417.058 146.984 418.935 150.269 421.922 152.744C424.909 155.133 428.834 156.328 433.698 156.328C436.514 156.328 439.031 155.987 441.25 155.304C443.554 154.536 446.199 153.469 449.186 152.104L454.05 164.136C451.149 166.355 447.607 167.976 443.426 169C439.33 170.024 435.959 170.536 433.314 170.536ZM442.402 131.752C441.549 127.571 440.013 124.499 437.794 122.536C435.575 120.488 432.802 119.464 429.474 119.464C426.061 119.464 423.202 120.531 420.898 122.664C418.594 124.712 417.101 127.741 416.418 131.752H442.402ZM509.336 167.72C507.971 168.829 506.008 169.725 503.448 170.408C500.973 171.176 498.755 171.56 496.792 171.56C489.112 171.56 483.053 169.64 478.616 165.8C474.264 161.875 472.088 156.328 472.088 149.16V119.848H463.768V107.048H472.088V92.328L488.6 89.384V107.048H499.864L504.984 119.848H488.6V146.216C488.6 149.459 489.368 152.147 490.904 154.28C492.44 156.328 494.701 157.352 497.688 157.352C498.797 157.352 499.907 157.224 501.016 156.968C502.125 156.712 503.277 156.285 504.472 155.688L509.336 167.72ZM550.689 170.536C539.937 170.536 531.446 167.592 525.217 161.704C519.073 155.816 516.001 147.923 516.001 138.024C516.001 128.125 518.774 120.189 524.321 114.216C529.953 108.243 537.59 105.256 547.233 105.256C556.961 105.256 564.086 108.499 568.609 114.984C573.217 121.384 575.521 128.979 575.521 137.768V142.888H533.665C534.433 146.984 536.31 150.269 539.297 152.744C542.284 155.133 546.209 156.328 551.073 156.328C553.889 156.328 556.406 155.987 558.625 155.304C560.929 154.536 563.574 153.469 566.561 152.104L571.425 164.136C568.524 166.355 564.982 167.976 560.801 169C556.705 170.024 553.334 170.536 550.689 170.536ZM559.777 131.752C558.924 127.571 557.388 124.499 555.169 122.536C552.95 120.488 550.177 119.464 546.849 119.464C543.436 119.464 540.577 120.531 538.273 122.664C535.969 124.712 534.476 127.741 533.793 131.752H559.777Z" fill="#724DB1"/>
<path d="M718.984 108.92L722.312 122.232C719.496 122.232 716.211 123.043 712.456 124.664C708.787 126.285 705.16 128.675 701.576 131.832V171H684.936V108.92H693.64L699.144 118.008C701.704 115.789 704.819 113.741 708.488 111.864C712.157 109.901 715.656 108.92 718.984 108.92Z" fill="#724DB1"/>
<path d="M61.312 116.216C63.9573 113.229 67.456 110.883 71.808 109.176C76.2453 107.384 80.2133 106.488 83.712 106.488C92.16 106.488 98.1333 108.963 101.632 113.912C105.216 118.861 107.008 124.92 107.008 132.088V171H90.24V132.856C90.24 128.931 89.3013 125.944 87.424 123.896C85.5467 121.763 82.816 120.696 79.232 120.696C76.8427 120.696 74.3253 121.336 71.68 122.616C69.0347 123.896 66.6453 125.347 64.512 126.968C64.5973 127.821 64.6827 128.675 64.768 129.528C64.8533 130.381 64.896 131.235 64.896 132.088V171H48.128V132.856C48.128 128.931 47.1893 125.944 45.312 123.896C43.4347 121.763 40.7467 120.696 37.248 120.696C35.1147 120.696 32.9387 121.165 30.72 122.104C28.5867 122.957 26.5387 124.067 24.576 125.432V171H7.936V108.92H16.64L20.736 114.552C23.552 111.992 26.9227 110.029 30.848 108.664C34.8587 107.213 38.4427 106.488 41.6 106.488C46.464 106.488 50.5173 107.384 53.76 109.176C57.0027 110.883 59.52 113.229 61.312 116.216ZM135.882 115.576C138.698 112.76 142.197 110.541 146.378 108.92C150.645 107.299 154.442 106.488 157.77 106.488C166.218 106.488 172.191 108.963 175.69 113.912C179.274 118.861 181.066 124.92 181.066 132.088V171H164.426V132.856C164.426 128.931 163.487 125.944 161.61 123.896C159.733 121.763 157.002 120.696 153.418 120.696C151.029 120.696 148.511 121.336 145.866 122.616C143.306 123.811 140.959 125.219 138.826 126.84V171H122.186V108.92H130.89L135.882 115.576ZM204.756 81.4C207.401 81.4 209.62 82.296 211.412 84.088C213.289 85.88 214.228 88.0987 214.228 90.744C214.228 93.3893 213.289 95.608 211.412 97.4C209.62 99.192 207.401 100.088 204.756 100.088C202.196 100.088 200.02 99.192 198.228 97.4C196.436 95.608 195.54 93.3893 195.54 90.744C195.54 88.0987 196.436 85.88 198.228 84.088C200.02 82.296 202.196 81.4 204.756 81.4ZM213.076 108.92V171H196.436V108.92H213.076ZM267.586 169.72C266.221 170.829 264.258 171.725 261.698 172.408C259.223 173.176 257.005 173.56 255.042 173.56C247.362 173.56 241.303 171.64 236.866 167.8C232.514 163.875 230.338 158.328 230.338 151.16V121.848H222.018V109.048H230.338V94.328L246.85 91.384V109.048H258.114L263.234 121.848H246.85V148.216C246.85 151.459 247.618 154.147 249.154 156.28C250.69 158.328 252.951 159.352 255.938 159.352C257.047 159.352 258.157 159.224 259.266 158.968C260.375 158.712 261.527 158.285 262.722 157.688L267.586 169.72Z" fill="#60B4F0"/>
</svg>

