<svg width="569" height="105" viewBox="0 0 569 105" fill="none" xmlns="http://www.w3.org/2000/svg">
<path d="M5.568 93V45H15.744L16.512 52.008L14.784 49.896C16.608 48.456 18.784 47.16 21.312 46.008C23.872 44.824 26.848 44.232 30.24 44.232C32.8 44.232 35.056 44.616 37.008 45.384C38.992 46.12 40.688 47.192 42.096 48.6C43.504 49.976 44.64 51.624 45.504 53.544L42.624 52.872C44.16 50.12 46.4 47.992 49.344 46.488C52.32 44.984 55.68 44.232 59.424 44.232C63.84 44.232 67.44 45.144 70.224 46.968C73.008 48.792 75.056 51.368 76.368 54.696C77.68 57.992 78.336 61.864 78.336 66.312V93H66.432V67.176C66.432 62.696 65.728 59.384 64.32 57.24C62.944 55.096 60.64 54.024 57.408 54.024C55.808 54.024 54.4 54.312 53.184 54.888C52 55.432 51.008 56.248 50.208 57.336C49.44 58.392 48.864 59.688 48.48 61.224C48.096 62.728 47.904 64.424 47.904 66.312V93H36V67.176C36 64.2 35.68 61.736 35.04 59.784C34.432 57.832 33.44 56.392 32.064 55.464C30.72 54.504 28.96 54.024 26.784 54.024C24 54.024 21.712 54.68 19.92 55.992C18.16 57.272 16.608 59.016 15.264 61.224L17.472 54.792V93H5.568ZM89.0055 93V45H100.142L100.622 53.928L97.8375 50.28C99.6615 48.744 101.838 47.352 104.366 46.104C106.894 44.856 109.838 44.232 113.198 44.232C119.342 44.232 123.902 46.28 126.878 50.376C129.854 54.44 131.342 59.72 131.342 66.216V93H119.438V67.176C119.438 62.696 118.686 59.384 117.182 57.24C115.71 55.096 113.294 54.024 109.934 54.024C107.214 54.024 104.99 54.696 103.262 56.04C101.534 57.352 100.014 59.112 98.7015 61.32L100.91 55.464V93H89.0055ZM141.974 93V45H153.878V93H141.974ZM141.974 37.704V25.8H153.878V37.704H141.974ZM180.685 93.96C177.677 93.96 175.229 93.352 173.341 92.136C171.453 90.888 170.061 89.304 169.165 87.384C168.269 85.464 167.821 83.464 167.821 81.384V54.792H161.005L162.061 45H167.821V34.44L179.725 33.192V45H190.285V54.792H179.725V76.488C179.725 78.92 179.869 80.68 180.157 81.768C180.445 82.824 181.101 83.496 182.125 83.784C183.149 84.04 184.781 84.168 187.021 84.168H190.285L189.229 93.96H180.685ZM198.037 93V45H208.213L208.981 52.008L207.253 49.896C209.077 48.456 211.253 47.16 213.781 46.008C216.341 44.824 219.317 44.232 222.709 44.232C225.269 44.232 227.525 44.616 229.477 45.384C231.461 46.12 233.157 47.192 234.565 48.6C235.973 49.976 237.109 51.624 237.973 53.544L235.093 52.872C236.629 50.12 238.869 47.992 241.813 46.488C244.789 44.984 248.149 44.232 251.893 44.232C256.309 44.232 259.909 45.144 262.693 46.968C265.477 48.792 267.525 51.368 268.837 54.696C270.149 57.992 270.805 61.864 270.805 66.312V93H258.901V67.176C258.901 62.696 258.197 59.384 256.789 57.24C255.413 55.096 253.109 54.024 249.877 54.024C248.277 54.024 246.869 54.312 245.653 54.888C244.469 55.432 243.477 56.248 242.677 57.336C241.909 58.392 241.333 59.688 240.949 61.224C240.565 62.728 240.373 64.424 240.373 66.312V93H228.469V67.176C228.469 64.2 228.149 61.736 227.509 59.784C226.901 57.832 225.909 56.392 224.533 55.464C223.189 54.504 221.429 54.024 219.253 54.024C216.469 54.024 214.181 54.68 212.389 55.992C210.629 57.272 209.077 59.016 207.733 61.224L209.941 54.792V93H198.037ZM304.61 93.96C298.818 93.96 293.986 92.808 290.114 90.504C286.274 88.168 283.394 85.096 281.474 81.288C279.554 77.448 278.594 73.256 278.594 68.712C278.594 64.328 279.49 60.28 281.282 56.568C283.106 52.856 285.762 49.88 289.25 47.64C292.738 45.368 296.994 44.232 302.018 44.232C306.626 44.232 310.466 45.176 313.538 47.064C316.61 48.952 318.914 51.48 320.45 54.648C321.986 57.784 322.754 61.256 322.754 65.064C322.754 66.12 322.69 67.192 322.562 68.28C322.434 69.336 322.242 70.44 321.986 71.592H290.978C291.426 74.568 292.354 76.984 293.762 78.84C295.202 80.664 296.946 82.008 298.994 82.872C301.074 83.736 303.298 84.168 305.666 84.168C308.45 84.168 311.042 83.816 313.442 83.112C315.842 82.376 318.05 81.416 320.066 80.232L320.642 90.312C318.818 91.272 316.546 92.12 313.826 92.856C311.106 93.592 308.034 93.96 304.61 93.96ZM291.266 63.528H310.658C310.658 62.088 310.386 60.648 309.842 59.208C309.298 57.736 308.386 56.504 307.106 55.512C305.858 54.52 304.162 54.024 302.018 54.024C298.946 54.024 296.53 54.92 294.77 56.712C293.01 58.504 291.842 60.776 291.266 63.528ZM346.529 93.96C343.521 93.96 341.073 93.352 339.185 92.136C337.297 90.888 335.905 89.304 335.009 87.384C334.113 85.464 333.665 83.464 333.665 81.384V54.792H326.849L327.905 45H333.665V34.44L345.569 33.192V45H356.129V54.792H345.569V76.488C345.569 78.92 345.713 80.68 346.001 81.768C346.289 82.824 346.945 83.496 347.969 83.784C348.993 84.04 350.625 84.168 352.865 84.168H356.129L355.073 93.96H346.529ZM387.017 93.96C381.225 93.96 376.393 92.808 372.521 90.504C368.681 88.168 365.801 85.096 363.881 81.288C361.961 77.448 361.001 73.256 361.001 68.712C361.001 64.328 361.897 60.28 363.689 56.568C365.513 52.856 368.169 49.88 371.657 47.64C375.145 45.368 379.401 44.232 384.425 44.232C389.033 44.232 392.873 45.176 395.945 47.064C399.017 48.952 401.321 51.48 402.857 54.648C404.393 57.784 405.161 61.256 405.161 65.064C405.161 66.12 405.097 67.192 404.969 68.28C404.841 69.336 404.649 70.44 404.393 71.592H373.385C373.833 74.568 374.761 76.984 376.169 78.84C377.609 80.664 379.353 82.008 381.401 82.872C383.481 83.736 385.705 84.168 388.073 84.168C390.857 84.168 393.449 83.816 395.849 83.112C398.249 82.376 400.457 81.416 402.473 80.232L403.049 90.312C401.225 91.272 398.953 92.12 396.233 92.856C393.513 93.592 390.441 93.96 387.017 93.96ZM373.673 63.528H393.065C393.065 62.088 392.793 60.648 392.249 59.208C391.705 57.736 390.793 56.504 389.513 55.512C388.265 54.52 386.569 54.024 384.425 54.024C381.353 54.024 378.937 54.92 377.177 56.712C375.417 58.504 374.249 60.776 373.673 63.528ZM477.974 93V45H489.11L489.398 50.088C490.614 48.744 492.326 47.4 494.534 46.056C496.742 44.712 499.158 44.04 501.782 44.04C502.55 44.04 503.254 44.104 503.894 44.232L503.03 55.944C502.326 55.752 501.622 55.624 500.918 55.56C500.246 55.496 499.574 55.464 498.902 55.464C496.886 55.464 495.046 55.928 493.382 56.856C491.718 57.784 490.55 58.92 489.878 60.264V93H477.974Z" fill="#724DB1"/>
<path d="M419.247 68.8772L441.84 90.6328C444.322 93.0234 447.623 94.3402 451.134 94.3402C458.381 94.3402 464.278 88.6617 464.278 81.6829C464.278 78.3022 462.91 75.1238 460.428 72.7331L432.669 46.0022L433.886 44.8297L461.645 71.5606C464.453 74.2647 466 77.8594 466 81.6829C466 89.5772 459.331 95.9987 451.134 95.9987C447.163 95.9987 443.43 94.5094 440.622 91.8053L418.03 70.0497L419.247 68.8772Z" fill="#D05814"/>
<path d="M447.917 76.0973C449.816 76.0973 451.361 77.5849 451.361 79.4142C451.361 81.2434 449.816 82.7311 447.917 82.7311C446.017 82.7311 444.472 81.2434 444.472 79.4142C444.472 77.5849 446.017 76.0973 447.917 76.0973ZM447.917 81.0726C448.866 81.0726 449.639 80.3288 449.639 79.4142C449.639 78.4995 448.866 77.7557 447.917 77.7557C446.967 77.7557 446.194 78.4995 446.194 79.4142C446.194 80.3288 446.967 81.0726 447.917 81.0726Z" fill="#D05814"/>
<path d="M453.083 84.3895C454.508 84.3895 455.667 85.5057 455.667 86.8772C455.667 88.2487 454.508 89.3649 453.083 89.3649C451.659 89.3649 450.5 88.2487 450.5 86.8772C450.5 85.5057 451.659 84.3895 453.083 84.3895ZM453.083 87.7064C453.559 87.7064 453.944 87.3349 453.944 86.8772C453.944 86.4195 453.559 86.048 453.083 86.048C452.608 86.048 452.222 86.4195 452.222 86.8772C452.222 87.3349 452.608 87.7064 453.083 87.7064Z" fill="#D05814"/>
<path d="M434.391 57.6074L424.057 47.6566L425.275 46.4839L435.609 56.4347L434.391 57.6074Z" fill="#D05814"/>
<path d="M427.502 60.0956L415.447 48.4867L416.665 47.314L428.72 58.9229L427.502 60.0956Z" fill="#D05814"/>
<path d="M413.218 44.0017L414.94 45.6599L413.722 46.8326L412 45.1744L413.218 44.0017Z" fill="#D05814"/>
<path d="M420.108 59.7557L440.489 79.381C440.91 77.6993 441.735 76.1702 442.869 74.8974L429.224 61.7575L430.442 60.5849L444.087 73.7248C445.409 72.6328 446.997 71.8375 448.743 71.432L436.113 59.2698L437.331 58.0973L450.88 71.1451C451.042 71.1385 451.199 71.1219 451.361 71.1219C457.533 71.1219 462.556 75.9579 462.556 81.9018C462.556 87.8457 457.533 92.6818 451.361 92.6818C445.188 92.6818 440.166 87.8457 440.166 81.9018C440.166 81.7459 440.184 81.5942 440.191 81.4391L418.891 60.9282L420.108 59.7557ZM459.144 76.7159C458.581 77.1802 458.25 77.8511 458.25 78.5849C458.25 79.9424 459.386 81.0452 460.789 81.0685C460.637 79.4614 460.051 77.9746 459.144 76.7159ZM451.361 91.0233C456.295 91.0233 460.355 87.3706 460.79 82.7269C458.436 82.7037 456.528 80.857 456.528 78.5849C456.528 77.3469 457.092 76.2175 458.043 75.4438C456.625 74.0831 454.759 73.161 452.682 72.8799L455.414 75.511L454.197 76.6835L450.219 72.8533C445.534 73.399 441.889 77.2449 441.889 81.9018C441.889 86.9311 446.138 91.0233 451.361 91.0233Z" fill="#D05814"/>
<path d="M418.384 58.095L417.166 59.2677L415.444 57.6095L416.662 56.4368L418.384 58.095Z" fill="#D05814"/>
<path d="M416.304 68.3886L414.583 66.7304L415.8 65.5577L417.522 67.2159L416.304 68.3886Z" fill="#D05814"/>
<path d="M446.804 86.2907L445.586 87.4634L443.864 85.8052L445.082 84.6325L446.804 86.2907Z" fill="#D05814"/>
<path d="M433.277 94.3402H435V95.9987H433.277V94.3402Z" fill="#D05814"/>
<path d="M433.277 91.0233H435V92.6818H433.277V91.0233Z" fill="#D05814"/>
<path d="M431.555 92.6818H433.277V94.3402H431.555V92.6818Z" fill="#D05814"/>
<path d="M435 92.6818H436.722V94.3402H435V92.6818Z" fill="#D05814"/>
<path d="M416.055 89.3649H417.777V91.0233H416.055V89.3649Z" fill="#D05814"/>
<path d="M416.055 86.048H417.777V87.7064H416.055V86.048Z" fill="#D05814"/>
<path d="M414.333 87.7064H416.055V89.3649H414.333V87.7064Z" fill="#D05814"/>
<path d="M417.777 87.7064H419.5V89.3649H417.777V87.7064Z" fill="#D05814"/>
<path d="M460.833 62.8297H462.556V64.4881H460.833V62.8297Z" fill="#D05814"/>
<path d="M460.833 59.5128H462.556V61.1712H460.833V59.5128Z" fill="#D05814"/>
<path d="M459.111 61.1712H460.833V62.8296H459.111V61.1712Z" fill="#D05814"/>
<path d="M462.556 61.1712H464.278V62.8296H462.556V61.1712Z" fill="#D05814"/>
<path d="M455.667 47.9036H457.389V49.562H455.667V47.9036Z" fill="#D05814"/>
<path d="M455.667 44.5867H457.389V46.2452H455.667V44.5867Z" fill="#D05814"/>
<path d="M453.944 46.2451H455.667V47.9036H453.944V46.2451Z" fill="#D05814"/>
<path d="M457.389 46.2451H459.111V47.9036H457.389V46.2451Z" fill="#D05814"/>
<path d="M417.777 76.9265H419.5V78.5849H417.777V76.9265Z" fill="#D05814"/>
<path d="M417.777 73.6096H419.5V75.2681H417.777V73.6096Z" fill="#D05814"/>
<path d="M416.055 75.2681H417.777V76.9265H416.055V75.2681Z" fill="#D05814"/>
<path d="M419.5 75.2681H421.222V76.9265H419.5V75.2681Z" fill="#D05814"/>
</svg>

