<svg width="54" height="52" viewBox="0 0 54 52" fill="none" xmlns="http://www.w3.org/2000/svg">
<path d="M7.24728 24.8772L29.8396 46.6328C32.3222 49.0234 35.6229 50.3402 39.1336 50.3402C46.3808 50.3402 52.2778 44.6617 52.2778 37.6829C52.2778 34.3022 50.9103 31.1238 48.4277 28.7331L20.6687 2.00218L21.8863 0.829651L49.6453 27.5606C52.4534 30.2647 54 33.8594 54 37.6829C54 45.5772 47.3315 51.9987 39.1336 51.9987C35.163 51.9987 31.4301 50.5094 28.622 47.8053L6.02966 26.0497L7.24728 24.8772Z" fill="#D05814"/>
<path d="M35.9165 32.0973C37.8161 32.0973 39.361 33.5849 39.361 35.4142C39.361 37.2434 37.8161 38.7311 35.9165 38.7311C34.0169 38.7311 32.472 37.2434 32.472 35.4142C32.472 33.5849 34.0169 32.0973 35.9165 32.0973ZM35.9165 37.0726C36.8663 37.0726 37.6387 36.3288 37.6387 35.4142C37.6387 34.4995 36.8663 33.7557 35.9165 33.7557C34.9667 33.7557 34.1943 34.4995 34.1943 35.4142C34.1943 36.3288 34.9667 37.0726 35.9165 37.0726Z" fill="#D05814"/>
<path d="M41.0832 40.3895C42.5075 40.3895 43.6666 41.5057 43.6666 42.8772C43.6666 44.2487 42.5075 45.3649 41.0832 45.3649C39.6589 45.3649 38.4999 44.2487 38.4999 42.8772C38.4999 41.5057 39.6589 40.3895 41.0832 40.3895ZM41.0832 43.7064C41.5586 43.7064 41.9443 43.3349 41.9443 42.8772C41.9443 42.4195 41.5586 42.048 41.0832 42.048C40.6079 42.048 40.2221 42.4195 40.2221 42.8772C40.2221 43.3349 40.6079 43.7064 41.0832 43.7064Z" fill="#D05814"/>
<path d="M22.3909 13.6074L12.0574 3.65659L13.2752 2.4839L23.6087 12.4347L22.3909 13.6074Z" fill="#D05814"/>
<path d="M15.5022 16.0956L3.44681 4.48672L4.6646 3.31403L16.72 14.9229L15.5022 16.0956Z" fill="#D05814"/>
<path d="M1.21812 0.0017276L2.94008 1.65991L1.72229 2.8326L0.000331784 1.17442L1.21812 0.0017276Z" fill="#D05814"/>
<path d="M8.10842 15.7557L28.4885 35.381C28.9096 33.6993 29.7354 32.1702 30.8695 30.8974L17.2242 17.7575L18.4418 16.5849L32.0871 29.7248C33.4089 28.6328 34.9968 27.8375 36.7432 27.432L24.1132 15.2698L25.3308 14.0973L38.8805 27.1451C39.0415 27.1385 39.1991 27.1219 39.361 27.1219C45.5335 27.1219 50.5555 31.9579 50.5555 37.9018C50.5555 43.8457 45.5335 48.6818 39.361 48.6818C33.1885 48.6818 28.1664 43.8457 28.1664 37.9018C28.1664 37.7459 28.1837 37.5942 28.1906 37.4391L6.8908 16.9282L8.10842 15.7557ZM47.1438 32.7159C46.5815 33.1802 46.2499 33.8511 46.2499 34.5849C46.2499 35.9424 47.3857 37.0452 48.7894 37.0685C48.637 35.4614 48.0514 33.9746 47.1438 32.7159ZM39.361 47.0233C44.2952 47.0233 48.3545 43.3706 48.7902 38.7269C46.4359 38.7037 44.5277 36.857 44.5277 34.5849C44.5277 33.3469 45.0917 32.2175 46.0433 31.4438C44.625 30.0831 42.759 29.161 40.6819 28.8799L43.4143 31.511L42.1967 32.6835L38.2191 28.8533C33.5338 29.399 29.8887 33.2449 29.8887 37.9018C29.8887 42.9311 34.1383 47.0233 39.361 47.0233Z" fill="#D05814"/>
<path d="M6.38392 14.095L5.16614 15.2677L3.44419 13.6095L4.66197 12.4368L6.38392 14.095Z" fill="#D05814"/>
<path d="M4.3045 24.3886L2.58253 22.7304L3.80033 21.5577L5.52229 23.2159L4.3045 24.3886Z" fill="#D05814"/>
<path d="M34.8035 42.2907L33.5857 43.4634L31.8638 41.8052L33.0816 40.6325L34.8035 42.2907Z" fill="#D05814"/>
<path d="M21.2775 50.3402H22.9997V51.9987H21.2775V50.3402Z" fill="#D05814"/>
<path d="M21.2775 47.0233H22.9997V48.6818H21.2775V47.0233Z" fill="#D05814"/>
<path d="M19.5553 48.6818H21.2775V50.3402H19.5553V48.6818Z" fill="#D05814"/>
<path d="M22.9997 48.6818H24.722V50.3402H22.9997V48.6818Z" fill="#D05814"/>
<path d="M4.05511 45.3649H5.77734V47.0233H4.05511V45.3649Z" fill="#D05814"/>
<path d="M4.05511 42.048H5.77734V43.7064H4.05511V42.048Z" fill="#D05814"/>
<path d="M2.33288 43.7064H4.05511V45.3649H2.33288V43.7064Z" fill="#D05814"/>
<path d="M5.77735 43.7064H7.49959V45.3649H5.77735V43.7064Z" fill="#D05814"/>
<path d="M48.8333 18.8297H50.5555V20.4881H48.8333V18.8297Z" fill="#D05814"/>
<path d="M48.8333 15.5128H50.5555V17.1712H48.8333V15.5128Z" fill="#D05814"/>
<path d="M47.1111 17.1712H48.8333V18.8296H47.1111V17.1712Z" fill="#D05814"/>
<path d="M50.5555 17.1712H52.2778V18.8296H50.5555V17.1712Z" fill="#D05814"/>
<path d="M43.6666 3.90359H45.3888V5.56205H43.6666V3.90359Z" fill="#D05814"/>
<path d="M43.6666 0.5867H45.3888V2.24515H43.6666V0.5867Z" fill="#D05814"/>
<path d="M41.9443 2.24515H43.6666V3.9036H41.9443V2.24515Z" fill="#D05814"/>
<path d="M45.3888 2.24515H47.1111V3.9036H45.3888V2.24515Z" fill="#D05814"/>
<path d="M5.77735 32.9265H7.49959V34.5849H5.77735V32.9265Z" fill="#D05814"/>
<path d="M5.77735 29.6096H7.49959V31.2681H5.77735V29.6096Z" fill="#D05814"/>
<path d="M4.05511 31.2681H5.77734V32.9265H4.05511V31.2681Z" fill="#D05814"/>
<path d="M7.4996 31.2681H9.22183V32.9265H7.4996V31.2681Z" fill="#D05814"/>
</svg>

